<svg width="28" height="28" viewBox="0 0 28 28" fill="none" xmlns="http://www.w3.org/2000/svg">
<path d="M2.33331 14.0002C2.33331 7.55684 7.55666 2.3335 14 2.3335C20.4433 2.3335 25.6666 7.55684 25.6666 14.0002C25.6666 20.4435 20.4433 25.6668 14 25.6668C7.55666 25.6668 2.33331 20.4435 2.33331 14.0002Z" fill="#B7B9B9" fill-opacity="0.8"/>
<path d="M14 2.3335C7.55998 2.3335 2.33331 7.56016 2.33331 14.0002C2.33331 20.4402 7.55998 25.6668 14 25.6668C20.44 25.6668 25.6666 20.4402 25.6666 14.0002C25.6666 7.56016 20.44 2.3335 14 2.3335ZM14 5.8335C15.9366 5.8335 17.5 7.39683 17.5 9.3335C17.5 11.2702 15.9366 12.8335 14 12.8335C12.0633 12.8335 10.5 11.2702 10.5 9.3335C10.5 7.39683 12.0633 5.8335 14 5.8335ZM14 22.4002C11.0833 22.4002 8.50498 20.9068 6.99998 18.6435C7.03498 16.3218 11.6666 15.0502 14 15.0502C16.3216 15.0502 20.965 16.3218 21 18.6435C19.495 20.9068 16.9166 22.4002 14 22.4002Z" fill="white"/>
</svg>
