<svg width="11" height="11" viewBox="0 0 11 11" fill="none" xmlns="http://www.w3.org/2000/svg">
<path d="M5.5 10C7.98528 10 10 7.98528 10 5.5C10 3.01472 7.98528 1 5.5 1C3.01472 1 1 3.01472 1 5.5C1 7.98528 3.01472 10 5.5 10Z" stroke="#717171" stroke-linecap="round" stroke-linejoin="round"/>
<path d="M4 4.5V4.5C4 3.94772 4.44772 3.5 5 3.5H5.57295C5.83467 3.5 6.07394 3.64787 6.19098 3.88197V3.88197C6.36165 4.2233 6.2233 4.63835 5.88197 4.80902V4.80902C5.64787 4.92606 5.5 5.16533 5.5 5.42705V6" stroke="#717171" stroke-linecap="round" stroke-linejoin="round"/>
<path d="M5.5 7.66663H5.50444" stroke="#717171" stroke-linecap="round" stroke-linejoin="round"/>
</svg>
