<svg width="9" height="16" viewBox="0 0 9 16" fill="none" xmlns="http://www.w3.org/2000/svg">
<g clip-path="url(#clip0_2_440)">
<path d="M7.00008 3.99999V11.6667C7.00008 13.14 5.80675 14.3333 4.33341 14.3333C2.86008 14.3333 1.66675 13.14 1.66675 11.6667V3.33332C1.66675 2.41332 2.41341 1.66666 3.33341 1.66666C4.25341 1.66666 5.00008 2.41332 5.00008 3.33332V10.3333C5.00008 10.7 4.70008 11 4.33341 11C3.96675 11 3.66675 10.7 3.66675 10.3333V3.99999H2.66675V10.3333C2.66675 11.2533 3.41341 12 4.33341 12C5.25341 12 6.00008 11.2533 6.00008 10.3333V3.33332C6.00008 1.85999 4.80675 0.666656 3.33341 0.666656C1.86008 0.666656 0.666748 1.85999 0.666748 3.33332V11.6667C0.666748 13.6933 2.30675 15.3333 4.33341 15.3333C6.36008 15.3333 8.00008 13.6933 8.00008 11.6667V3.99999H7.00008Z" fill="#C4C4C4"/>
</g>
<defs>
<clipPath id="clip0_2_440">
<rect width="9" height="16" fill="white"/>
</clipPath>
</defs>
</svg>
