<svg width="20" height="17" viewBox="0 0 20 17" fill="none" xmlns="http://www.w3.org/2000/svg">
<path d="M14.5263 0.883789H12.5117V8.84127L14.5263 6.82672V0.883789Z" fill="white"/>
<path d="M14.5263 0.883789H12.5117V8.84127L14.5263 6.82672V0.883789Z" fill="#4EBFD9"/>
<path d="M2.43936 0.883789H0.424805V17.0002H2.43936V0.883789Z" fill="white"/>
<path d="M2.43936 0.883789H0.424805V17.0002H2.43936V0.883789Z" fill="#4EBFD9"/>
<path d="M8 1H6V17H8V1Z" fill="white"/>
<path d="M8 1H6V17H8V1Z" fill="#4EBFD9"/>
<path d="M19.1196 9.53597L17.9612 8.3776C17.3669 7.78331 16.41 7.78331 15.8258 8.3776L10.4973 13.7061V16.9999H13.7911L19.1196 11.6714C19.7139 11.0771 19.7139 10.1202 19.1196 9.53597ZM13.0961 15.4386H12.0586V14.4011L15.5337 10.926L16.5712 11.9635L13.0961 15.4386Z" fill="white"/>
<path d="M19.1196 9.53597L17.9612 8.3776C17.3669 7.78331 16.41 7.78331 15.8258 8.3776L10.4973 13.7061V16.9999H13.7911L19.1196 11.6714C19.7139 11.0771 19.7139 10.1202 19.1196 9.53597ZM13.0961 15.4386H12.0586V14.4011L15.5337 10.926L16.5712 11.9635L13.0961 15.4386Z" fill="#4EBFD9"/>
</svg>
