<svg width="16" height="17" viewBox="0 0 16 17" fill="none" xmlns="http://www.w3.org/2000/svg">
<path d="M8.00065 4.625C5.08398 4.625 2.59315 6.43917 1.58398 9C2.59315 11.5608 5.08398 13.375 8.00065 13.375C10.9173 13.375 13.4082 11.5608 14.4173 9C13.4082 6.43917 10.9173 4.625 8.00065 4.625ZM8.00065 11.9167C6.39065 11.9167 5.08398 10.61 5.08398 9C5.08398 7.39 6.39065 6.08333 8.00065 6.08333C9.61065 6.08333 10.9173 7.39 10.9173 9C10.9173 10.61 9.61065 11.9167 8.00065 11.9167ZM8.00065 7.25C7.03232 7.25 6.25065 8.03167 6.25065 9C6.25065 9.96833 7.03232 10.75 8.00065 10.75C8.96898 10.75 9.75065 9.96833 9.75065 9C9.75065 8.03167 8.96898 7.25 8.00065 7.25Z" fill="#AEAEAE"/>
</svg>
