<svg width="37" height="37" viewBox="0 0 37 37" fill="none" xmlns="http://www.w3.org/2000/svg">
<rect width="37" height="37" rx="18.5" fill="#FAFAFA"/>
<g clip-path="url(#clip0_127_5547)">
<path d="M20.6038 12.3939L23.5015 11.6174C24.1358 11.4475 24.7973 11.4041 25.4483 11.4898C26.0993 11.5755 26.727 11.7886 27.2956 12.1169C27.8643 12.4452 28.3627 12.8823 28.7624 13.4032C29.1621 13.9242 29.4553 14.5187 29.6253 15.1529C29.7952 15.7872 29.8386 16.4487 29.7529 17.0997C29.6672 17.7507 29.4541 18.3784 29.1258 18.947C28.7975 19.5157 28.3604 20.0141 27.8395 20.4138C27.3185 20.8135 26.724 21.1067 26.0897 21.2767L23.192 22.0531M17.3964 23.606L14.4986 24.3825C13.8644 24.5524 13.2029 24.5958 12.5519 24.5101C11.9009 24.4244 11.2732 24.2113 10.7045 23.883C9.55611 23.22 8.71812 22.1279 8.37491 20.847C8.03169 19.5661 8.21137 18.2013 8.87441 17.0529C9.53745 15.9044 10.6295 15.0665 11.9104 14.7232L14.8082 13.9468" stroke="#C4C4C4" stroke-width="2" stroke-linecap="round" stroke-linejoin="round"/>
<path d="M15.1364 19.0352L22.8638 16.9646" stroke="#C4C4C4" stroke-width="2" stroke-linecap="round" stroke-linejoin="round"/>
</g>
<defs>
<clipPath id="clip0_127_5547">
<rect width="24" height="24" fill="white" transform="translate(4.3031 9.51465) rotate(-15)"/>
</clipPath>
</defs>
</svg>
