<svg width="157" height="64" viewBox="0 0 157 64" fill="none" xmlns="http://www.w3.org/2000/svg">
<path fill-rule="evenodd" clip-rule="evenodd" d="M88.497 17.2543L94.2815 19.9962L93.1272 16.7531L93.7661 16.3034C95.095 15.368 95.9583 13.8356 95.9583 12.1037V6.18064C95.9583 3.33608 93.6265 1.03011 90.75 1.03011H78.25C75.3735 1.03011 73.0417 3.33608 73.0417 6.18064V12.1037C73.0417 14.9483 75.3735 17.2543 78.25 17.2543H88.497ZM96.099 22L88.2603 18.2844H78.25C74.7982 18.2844 72 15.5172 72 12.1037V6.18064C72 2.76717 74.7982 0 78.25 0H90.75C94.2018 0 97 2.76716 97 6.18064V12.1037C97 14.1829 95.9618 16.0223 94.3702 17.1426L96.099 22Z" fill="#4F4F4F"/>
<path d="M81.9857 9.11592C81.9857 9.70823 81.5056 10.1884 80.9133 10.1884C80.321 10.1884 79.8408 9.70823 79.8408 9.11592C79.8408 8.52362 80.321 8.04346 80.9133 8.04346C81.5056 8.04346 81.9857 8.52362 81.9857 9.11592Z" fill="#4F4F4F"/>
<path d="M85.7397 9.11592C85.7397 9.70823 85.2595 10.1884 84.6672 10.1884C84.0749 10.1884 83.5947 9.70823 83.5947 9.11592C83.5947 8.52362 84.0749 8.04346 84.6672 8.04346C85.2595 8.04346 85.7397 8.52362 85.7397 9.11592Z" fill="#4F4F4F"/>
<path d="M90.0292 9.11592C90.0292 9.70823 89.549 10.1884 88.9567 10.1884C88.3644 10.1884 87.8843 9.70823 87.8843 9.11592C87.8843 8.52362 88.3644 8.04346 88.9567 8.04346C89.549 8.04346 90.0292 8.52362 90.0292 9.11592Z" fill="#4F4F4F"/>
<path fill-rule="evenodd" clip-rule="evenodd" d="M76.8667 2C80.254 2 83 4.89295 83 8.46158V14.6539C83 18.2225 80.254 21.1155 76.8667 21.1155H68.0405L60.8289 25L62.4508 19.8216C60.9625 18.6427 60 16.7667 60 14.6539V8.46158C60 4.89295 62.746 2 66.1333 2H76.8667Z" fill="#FCFCFC"/>
<path fill-rule="evenodd" clip-rule="evenodd" d="M67.7944 20.0386L62.5795 22.8475L63.6514 19.4253L63.0651 18.9609C61.8226 17.9766 61.0222 16.4139 61.0222 14.6539V8.46158C61.0222 5.48772 63.3105 3.07693 66.1333 3.07693H76.8667C79.6895 3.07693 81.9778 5.48772 81.9778 8.46158V14.6539C81.9778 17.6278 79.6895 20.0386 76.8667 20.0386H67.7944ZM60.8289 25L68.0405 21.1155H76.8667C80.254 21.1155 83 18.2225 83 14.6539V8.46158C83 4.89295 80.254 2 76.8667 2H66.1333C62.746 2 60 4.89295 60 8.46158V14.6539C60 16.7667 60.9625 18.6427 62.4508 19.8216L60.8289 25Z" fill="#4F4F4F"/>
<path d="M74.4782 11.7971C74.4782 12.3894 74.8383 12.8695 75.2826 12.8695C75.7268 12.8695 76.0869 12.3894 76.0869 11.7971C76.0869 11.2048 75.7268 10.7246 75.2826 10.7246C74.8383 10.7246 74.4782 11.2048 74.4782 11.7971Z" fill="#4F4F4F"/>
<path d="M70.7243 11.7971C70.7243 12.3894 71.0844 12.8695 71.5287 12.8695C71.9729 12.8695 72.333 12.3894 72.333 11.7971C72.333 11.2048 71.9729 10.7246 71.5287 10.7246C71.0844 10.7246 70.7243 11.2048 70.7243 11.7971Z" fill="#4F4F4F"/>
<path d="M66.4347 11.7971C66.4347 12.3894 66.9148 12.8695 67.5071 12.8695C68.0994 12.8695 68.5796 12.3894 68.5796 11.7971C68.5796 11.2048 68.0994 10.7246 67.5071 10.7246C66.9148 10.7246 66.4347 11.2048 66.4347 11.7971Z" fill="#4F4F4F"/>
<path d="M17.3505 31.9412V40.1765C17.3505 41 17.5529 41.634 17.9579 42.0784C18.3628 42.5229 18.9571 42.7451 19.7408 42.7451C20.5246 42.7451 21.1254 42.5229 21.5434 42.0784C21.9614 41.634 22.1704 41 22.1704 40.1765V31.9412H25.5209V40.1569C25.5209 41.3856 25.2596 42.4248 24.7371 43.2745C24.2147 44.1242 23.5093 44.7647 22.6211 45.1961C21.7459 45.6275 20.7662 45.8431 19.6821 45.8431C18.5979 45.8431 17.6248 45.634 16.7627 45.2157C15.9136 44.7843 15.2409 44.1438 14.7445 43.2941C14.2482 42.4314 14 41.3856 14 40.1569V31.9412H17.3505Z" fill="#4F4F4F"/>
<path d="M34.5353 34.6471C35.8154 34.6471 36.8343 35.0654 37.5919 35.902C38.3626 36.7255 38.7479 37.8627 38.7479 39.3137V45.7059H35.417V39.7647C35.417 39.0327 35.2276 38.4641 34.8488 38.0588C34.47 37.6536 33.9606 37.451 33.3205 37.451C32.6805 37.451 32.1711 37.6536 31.7923 38.0588C31.4135 38.4641 31.2241 39.0327 31.2241 39.7647V45.7059H27.8736V34.7647H31.2241V36.2157C31.5637 35.732 32.0209 35.3529 32.5956 35.0784C33.1703 34.7908 33.8169 34.6471 34.5353 34.6471Z" fill="#4F4F4F"/>
<path d="M42.7612 33.6275C42.1734 33.6275 41.6901 33.4575 41.3113 33.1176C40.9455 32.7647 40.7626 32.3333 40.7626 31.8235C40.7626 31.3007 40.9455 30.8693 41.3113 30.5294C41.6901 30.1765 42.1734 30 42.7612 30C43.3359 30 43.8061 30.1765 44.1719 30.5294C44.5507 30.8693 44.7401 31.3007 44.7401 31.8235C44.7401 32.3333 44.5507 32.7647 44.1719 33.1176C43.8061 33.4575 43.3359 33.6275 42.7612 33.6275ZM44.4266 34.7647V45.7059H41.0761V34.7647H44.4266Z" fill="#4F4F4F"/>
<path d="M61.001 32.1373V45.7059H59.218V35.5882L54.7116 45.7059H53.4576L48.9315 35.5686V45.7059H47.1485V32.1373H49.0687L54.0846 43.3529L59.1005 32.1373H61.001Z" fill="#4F4F4F"/>
<path d="M73.8215 39.9216C73.8215 40.2614 73.8019 40.6209 73.7627 41H65.1808C65.2461 42.0588 65.6053 42.8889 66.2585 43.4902C66.9246 44.0784 67.728 44.3726 68.6684 44.3726C69.4391 44.3726 70.0792 44.1961 70.5886 43.8431C71.1111 43.4771 71.4768 42.9935 71.6858 42.3922H73.606C73.3186 43.4248 72.7438 44.268 71.8817 44.9216C71.0196 45.5621 69.9485 45.8824 68.6684 45.8824C67.6496 45.8824 66.7352 45.6536 65.9254 45.1961C65.1286 44.7386 64.5016 44.0915 64.0444 43.2549C63.5872 42.4052 63.3586 41.4248 63.3586 40.3137C63.3586 39.2026 63.5807 38.2288 64.0248 37.3922C64.4689 36.5556 65.0894 35.915 65.8862 35.4706C66.696 35.0131 67.6235 34.7843 68.6684 34.7843C69.6873 34.7843 70.5886 35.0065 71.3723 35.451C72.156 35.8954 72.7569 36.5098 73.1749 37.2941C73.606 38.0654 73.8215 38.9412 73.8215 39.9216ZM71.9797 39.549C71.9797 38.8693 71.8295 38.2876 71.5291 37.8039C71.2286 37.3072 70.8172 36.9346 70.2947 36.6863C69.7853 36.4248 69.217 36.2941 68.5901 36.2941C67.6888 36.2941 66.9181 36.5817 66.278 37.1569C65.6511 37.732 65.2919 38.5294 65.2004 39.549H71.9797Z" fill="#4F4F4F"/>
<path d="M79.9761 45.8824C79.1532 45.8824 78.4151 45.7451 77.762 45.4706C77.1089 45.183 76.593 44.7908 76.2142 44.2941C75.8354 43.7843 75.6264 43.2026 75.5872 42.549H77.4289C77.4812 43.085 77.7294 43.5229 78.1735 43.8627C78.6307 44.2026 79.225 44.3726 79.9565 44.3726C80.6357 44.3726 81.1713 44.2222 81.5631 43.9216C81.955 43.6209 82.1509 43.2418 82.1509 42.7843C82.1509 42.3137 81.9419 41.9673 81.524 41.7451C81.106 41.5098 80.4594 41.281 79.5842 41.0588C78.7874 40.8497 78.1343 40.6405 77.6249 40.4314C77.1285 40.2091 76.6975 39.8889 76.3317 39.4706C75.979 39.0392 75.8027 38.4771 75.8027 37.7843C75.8027 37.2353 75.966 36.732 76.2925 36.2745C76.6191 35.817 77.0828 35.4575 77.6837 35.1961C78.2845 34.9216 78.9703 34.7843 79.741 34.7843C80.9296 34.7843 81.8897 35.085 82.6212 35.6863C83.3527 36.2876 83.7445 37.1111 83.7968 38.1569H82.0138C81.9746 37.5948 81.746 37.1438 81.328 36.8039C80.9231 36.4641 80.3745 36.2941 79.6822 36.2941C79.0421 36.2941 78.5327 36.4314 78.1539 36.7059C77.7751 36.9804 77.5857 37.3399 77.5857 37.7843C77.5857 38.1373 77.6967 38.4314 77.9188 38.6667C78.1539 38.8889 78.4413 39.0719 78.7809 39.2157C79.1336 39.3464 79.6169 39.4967 80.2308 39.6667C81.0015 39.8758 81.6284 40.085 82.1117 40.2941C82.5951 40.4902 83.0065 40.7908 83.3461 41.1961C83.6988 41.6013 83.8817 42.1307 83.8947 42.7843C83.8947 43.3725 83.7315 43.902 83.4049 44.3726C83.0784 44.8431 82.6146 45.2157 82.0138 45.4902C81.426 45.7516 80.7467 45.8824 79.9761 45.8824Z" fill="#4F4F4F"/>
<path d="M90.2128 45.8824C89.3899 45.8824 88.6519 45.7451 87.9988 45.4706C87.3457 45.183 86.8297 44.7908 86.4509 44.2941C86.0721 43.7843 85.8631 43.2026 85.8239 42.549H87.6657C87.7179 43.085 87.9661 43.5229 88.4102 43.8627C88.8674 44.2026 89.4617 44.3726 90.1932 44.3726C90.8725 44.3726 91.408 44.2222 91.7999 43.9216C92.1917 43.6209 92.3877 43.2418 92.3877 42.7843C92.3877 42.3137 92.1787 41.9673 91.7607 41.7451C91.3427 41.5098 90.6961 41.281 89.821 41.0588C89.0242 40.8497 88.371 40.6405 87.8616 40.4314C87.3653 40.2091 86.9342 39.8889 86.5685 39.4706C86.2158 39.0392 86.0394 38.4771 86.0394 37.7843C86.0394 37.2353 86.2027 36.732 86.5293 36.2745C86.8558 35.817 87.3195 35.4575 87.9204 35.1961C88.5213 34.9216 89.207 34.7843 89.9777 34.7843C91.1664 34.7843 92.1264 35.085 92.8579 35.6863C93.5894 36.2876 93.9813 37.1111 94.0335 38.1569H92.2505C92.2113 37.5948 91.9827 37.1438 91.5648 36.8039C91.1598 36.4641 90.6112 36.2941 89.9189 36.2941C89.2789 36.2941 88.7695 36.4314 88.3906 36.7059C88.0118 36.9804 87.8224 37.3399 87.8224 37.7843C87.8224 38.1373 87.9335 38.4314 88.1555 38.6667C88.3906 38.8889 88.678 39.0719 89.0176 39.2157C89.3703 39.3464 89.8536 39.4967 90.4675 39.6667C91.2382 39.8758 91.8652 40.085 92.3485 40.2941C92.8318 40.4902 93.2433 40.7908 93.5829 41.1961C93.9356 41.6013 94.1184 42.1307 94.1315 42.7843C94.1315 43.3725 93.9682 43.902 93.6417 44.3726C93.3151 44.8431 92.8514 45.2157 92.2505 45.4902C91.6627 45.7516 90.9835 45.8824 90.2128 45.8824Z" fill="#4F4F4F"/>
<path d="M95.9823 40.2941C95.9823 39.1961 96.2044 38.2353 96.6485 37.4118C97.0926 36.5752 97.7 35.9281 98.4706 35.4706C99.2544 35.0131 100.123 34.7843 101.077 34.7843C102.017 34.7843 102.833 34.9869 103.526 35.3922C104.218 35.7974 104.734 36.3072 105.074 36.9216V34.9608H106.876V45.7059H105.074V43.7059C104.721 44.3333 104.192 44.8562 103.487 45.2745C102.794 45.6797 101.984 45.8824 101.057 45.8824C100.103 45.8824 99.2413 45.6471 98.4706 45.1765C97.7 44.7059 97.0926 44.0458 96.6485 43.1961C96.2044 42.3464 95.9823 41.3791 95.9823 40.2941ZM105.074 40.3137C105.074 39.5033 104.91 38.7974 104.584 38.1961C104.257 37.5948 103.813 37.1373 103.251 36.8235C102.703 36.4967 102.095 36.3333 101.429 36.3333C100.763 36.3333 100.156 36.4902 99.6071 36.8039C99.0584 37.1176 98.6209 37.5752 98.2943 38.1765C97.9678 38.7778 97.8045 39.4837 97.8045 40.2941C97.8045 41.1176 97.9678 41.8366 98.2943 42.451C98.6209 43.0523 99.0584 43.5163 99.6071 43.8431C100.156 44.1569 100.763 44.3137 101.429 44.3137C102.095 44.3137 102.703 44.1569 103.251 43.8431C103.813 43.5163 104.257 43.0523 104.584 42.451C104.91 41.8366 105.074 41.1242 105.074 40.3137Z" fill="#4F4F4F"/>
<path d="M114.317 34.7843C115.245 34.7843 116.055 34.9869 116.747 35.3922C117.452 35.7974 117.975 36.3072 118.314 36.9216V34.9608H120.117V45.9412C120.117 46.9216 119.908 47.7908 119.49 48.549C119.072 49.3203 118.471 49.9216 117.687 50.3529C116.917 50.7843 116.015 51 114.984 51C113.573 51 112.397 50.6667 111.457 50C110.516 49.3333 109.961 48.4248 109.791 47.2745H111.555C111.751 47.9281 112.156 48.451 112.769 48.8431C113.383 49.2484 114.121 49.451 114.984 49.451C115.963 49.451 116.76 49.1438 117.374 48.5294C118.001 47.915 118.314 47.0523 118.314 45.9412V43.6863C117.962 44.3137 117.439 44.8366 116.747 45.2549C116.055 45.6732 115.245 45.8824 114.317 45.8824C113.364 45.8824 112.495 45.6471 111.711 45.1765C110.941 44.7059 110.333 44.0458 109.889 43.1961C109.445 42.3464 109.223 41.3791 109.223 40.2941C109.223 39.1961 109.445 38.2353 109.889 37.4118C110.333 36.5752 110.941 35.9281 111.711 35.4706C112.495 35.0131 113.364 34.7843 114.317 34.7843ZM118.314 40.3137C118.314 39.5033 118.151 38.7974 117.825 38.1961C117.498 37.5948 117.054 37.1373 116.492 36.8235C115.944 36.4967 115.336 36.3333 114.67 36.3333C114.004 36.3333 113.396 36.4902 112.848 36.8039C112.299 37.1176 111.862 37.5752 111.535 38.1765C111.209 38.7778 111.045 39.4837 111.045 40.2941C111.045 41.1176 111.209 41.8366 111.535 42.451C111.862 43.0523 112.299 43.5163 112.848 43.8431C113.396 44.1569 114.004 44.3137 114.67 44.3137C115.336 44.3137 115.944 44.1569 116.492 43.8431C117.054 43.5163 117.498 43.0523 117.825 42.451C118.151 41.8366 118.314 41.1242 118.314 40.3137Z" fill="#4F4F4F"/>
<path d="M132.927 39.9216C132.927 40.2614 132.907 40.6209 132.868 41H124.286C124.351 42.0588 124.711 42.8889 125.364 43.4902C126.03 44.0784 126.833 44.3726 127.774 44.3726C128.544 44.3726 129.184 44.1961 129.694 43.8431C130.216 43.4771 130.582 42.9935 130.791 42.3922H132.711C132.424 43.4248 131.849 44.268 130.987 44.9216C130.125 45.5621 129.054 45.8824 127.774 45.8824C126.755 45.8824 125.84 45.6536 125.031 45.1961C124.234 44.7386 123.607 44.0915 123.15 43.2549C122.692 42.4052 122.464 41.4248 122.464 40.3137C122.464 39.2026 122.686 38.2288 123.13 37.3922C123.574 36.5556 124.195 35.915 124.991 35.4706C125.801 35.0131 126.729 34.7843 127.774 34.7843C128.793 34.7843 129.694 35.0065 130.478 35.451C131.261 35.8954 131.862 36.5098 132.28 37.2941C132.711 38.0654 132.927 38.9412 132.927 39.9216ZM131.085 39.549C131.085 38.8693 130.935 38.2876 130.634 37.8039C130.334 37.3072 129.922 36.9346 129.4 36.6863C128.891 36.4248 128.322 36.2941 127.695 36.2941C126.794 36.2941 126.023 36.5817 125.383 37.1569C124.756 37.732 124.397 38.5294 124.306 39.549H131.085Z" fill="#4F4F4F"/>
<path d="M139.081 45.8824C138.258 45.8824 137.52 45.7451 136.867 45.4706C136.214 45.183 135.698 44.7908 135.319 44.2941C134.941 43.7843 134.732 43.2026 134.692 42.549H136.534C136.586 43.085 136.835 43.5229 137.279 43.8627C137.736 44.2026 138.33 44.3726 139.062 44.3726C139.741 44.3726 140.277 44.2222 140.668 43.9216C141.06 43.6209 141.256 43.2418 141.256 42.7843C141.256 42.3137 141.047 41.9673 140.629 41.7451C140.211 41.5098 139.565 41.281 138.689 41.0588C137.893 40.8497 137.24 40.6405 136.73 40.4314C136.234 40.2091 135.803 39.8889 135.437 39.4706C135.084 39.0392 134.908 38.4771 134.908 37.7843C134.908 37.2353 135.071 36.732 135.398 36.2745C135.724 35.817 136.188 35.4575 136.789 35.1961C137.39 34.9216 138.076 34.7843 138.846 34.7843C140.035 34.7843 140.995 35.085 141.726 35.6863C142.458 36.2876 142.85 37.1111 142.902 38.1569H141.119C141.08 37.5948 140.851 37.1438 140.433 36.8039C140.028 36.4641 139.48 36.2941 138.787 36.2941C138.147 36.2941 137.638 36.4314 137.259 36.7059C136.88 36.9804 136.691 37.3399 136.691 37.7843C136.691 38.1373 136.802 38.4314 137.024 38.6667C137.259 38.8889 137.547 39.0719 137.886 39.2157C138.239 39.3464 138.722 39.4967 139.336 39.6667C140.107 39.8758 140.734 40.085 141.217 40.2941C141.7 40.4902 142.112 40.7908 142.451 41.1961C142.804 41.6013 142.987 42.1307 143 42.7843C143 43.3725 142.837 43.902 142.51 44.3726C142.184 44.8431 141.72 45.2157 141.119 45.4902C140.531 45.7516 139.852 45.8824 139.081 45.8824Z" fill="#4F4F4F"/>
<path d="M4.74317 58.0492C4.69856 57.6174 4.50044 57.274 4.1488 57.0189C3.79716 56.7639 3.35499 56.6364 2.82229 56.6364C2.44703 56.6364 2.11639 56.6982 1.83035 56.822C1.54694 56.9457 1.32389 57.1174 1.16119 57.3371C1.00112 57.5543 0.921081 57.8018 0.921081 58.0795C0.921081 58.2841 0.967004 58.4634 1.05885 58.6174C1.15069 58.7715 1.27403 58.904 1.42886 59.0152C1.58631 59.1237 1.7595 59.2172 1.94844 59.2955C2.14 59.3737 2.33288 59.4394 2.52707 59.4924L3.3773 59.7273C3.63446 59.7955 3.89163 59.8826 4.1488 59.9886C4.40597 60.0947 4.64083 60.2285 4.85339 60.3902C5.06857 60.5492 5.24045 60.7449 5.36904 60.9773C5.50024 61.2071 5.56585 61.4836 5.56585 61.8068C5.56585 62.221 5.45432 62.5934 5.23127 62.9242C5.00821 63.2551 4.68807 63.5177 4.27082 63.7121C3.85358 63.904 3.35368 64 2.77112 64C2.22267 64 1.74638 63.9129 1.34226 63.7386C0.938138 63.5619 0.620614 63.3182 0.389688 63.0076C0.158762 62.697 0.0288658 62.3371 0 61.928H0.755759C0.782 62.2336 0.886967 62.4924 1.07066 62.7045C1.25435 62.9167 1.49315 63.0783 1.78705 63.1894C2.08096 63.298 2.40898 63.3523 2.77112 63.3523C3.17261 63.3523 3.5295 63.2879 3.84177 63.1591C4.15667 63.0278 4.40334 62.846 4.58179 62.6136C4.76285 62.3788 4.85339 62.1061 4.85339 61.7955C4.85339 61.5328 4.78254 61.3131 4.64083 61.1364C4.49913 60.9571 4.301 60.8068 4.04646 60.6856C3.79454 60.5644 3.50194 60.4571 3.16868 60.3636L2.2043 60.0909C1.57187 59.9091 1.08115 59.6578 0.732141 59.3371C0.383128 59.0164 0.208621 58.6073 0.208621 58.1098C0.208621 57.6932 0.324084 57.327 0.55501 57.0114C0.788561 56.6932 1.10346 56.4457 1.49971 56.2689C1.89858 56.0896 2.346 56 2.84197 56C3.34318 56 3.78667 56.0884 4.17242 56.2652C4.55817 56.4419 4.86388 56.6856 5.08956 56.9962C5.31786 57.3043 5.43989 57.6553 5.45563 58.0492H4.74317Z" fill="#4F4F4F"/>
<path d="M7.19939 63.8674V58.0492H7.90398V63.8674H7.19939ZM7.55759 57.0492C7.41326 57.0492 7.28992 57.0025 7.18758 56.9091C7.08524 56.8131 7.03407 56.6982 7.03407 56.5644C7.03407 56.4306 7.08524 56.3169 7.18758 56.2235C7.28992 56.1275 7.41326 56.0795 7.55759 56.0795C7.70191 56.0795 7.82525 56.1275 7.92759 56.2235C8.02994 56.3169 8.08111 56.4306 8.08111 56.5644C8.08111 56.6982 8.02994 56.8131 7.92759 56.9091C7.82525 57.0025 7.70191 57.0492 7.55759 57.0492Z" fill="#4F4F4F"/>
<path d="M13.8192 59.3258L13.1776 59.5C13.1146 59.3258 13.0254 59.1679 12.9099 59.0265C12.7944 58.8851 12.6435 58.7727 12.4572 58.6894C12.2735 58.6061 12.0452 58.5644 11.7723 58.5644C11.3629 58.5644 11.0271 58.6578 10.7646 58.8447C10.5022 59.0316 10.371 59.2727 10.371 59.5682C10.371 59.8182 10.4602 60.0215 10.6387 60.178C10.8197 60.3321 11.0979 60.4545 11.4732 60.5455L12.3864 60.7614C12.8928 60.8801 13.272 61.0682 13.5239 61.3258C13.7785 61.5833 13.9058 61.9066 13.9058 62.2955C13.9058 62.6237 13.8113 62.9154 13.6224 63.1705C13.4334 63.4255 13.1697 63.6263 12.8312 63.7727C12.4953 63.9167 12.1056 63.9886 11.6621 63.9886C11.0717 63.9886 10.5849 63.8611 10.2018 63.6061C9.81863 63.3485 9.57327 62.9773 9.46568 62.4924L10.1388 62.3333C10.2254 62.6793 10.3946 62.9407 10.6466 63.1174C10.9011 63.2942 11.2357 63.3826 11.6503 63.3826C12.1148 63.3826 12.4861 63.2828 12.7643 63.0833C13.0424 62.8813 13.1815 62.6288 13.1815 62.3258C13.1815 62.0909 13.1001 61.8939 12.9374 61.7348C12.7747 61.5732 12.5281 61.4545 12.1974 61.3788L11.2094 61.1515C10.6846 61.0303 10.2962 60.8384 10.0443 60.5758C9.79239 60.3131 9.66643 59.9874 9.66643 59.5985C9.66643 59.2778 9.75696 58.9962 9.93803 58.7538C10.1191 58.5088 10.3684 58.3169 10.6859 58.178C11.0034 58.0391 11.3656 57.9697 11.7723 57.9697C12.326 57.9697 12.7682 58.0909 13.0988 58.3333C13.4321 58.5732 13.6722 58.904 13.8192 59.3258Z" fill="#4F4F4F"/>
<path d="M17.8213 58.0492V58.6364H14.9361V58.0492H17.8213ZM15.8375 56.6553H16.5421V62.3485C16.5421 62.5909 16.5854 62.7816 16.672 62.9205C16.7586 63.0568 16.8714 63.154 17.0105 63.2121C17.1496 63.2677 17.2978 63.2955 17.4553 63.2955C17.5471 63.2955 17.6258 63.2904 17.6914 63.2803C17.757 63.2677 17.8148 63.2551 17.8646 63.2424L18.0142 63.8523C17.946 63.8775 17.862 63.9003 17.7623 63.9205C17.6626 63.9432 17.5392 63.9545 17.3923 63.9545C17.1351 63.9545 16.8871 63.9003 16.6483 63.7917C16.4122 63.6831 16.218 63.5215 16.0658 63.3068C15.9136 63.0922 15.8375 62.8258 15.8375 62.5076V56.6553Z" fill="#4F4F4F"/>
<path d="M21.792 63.9886C21.2278 63.9886 20.7397 63.8624 20.3277 63.6098C19.9157 63.3548 19.5969 63.0025 19.3712 62.553C19.1482 62.101 19.0367 61.5808 19.0367 60.9924C19.0367 60.4066 19.1482 59.8864 19.3712 59.4318C19.5969 58.9747 19.9079 58.6174 20.3041 58.3598C20.703 58.0997 21.1635 57.9697 21.6857 57.9697C22.0138 57.9697 22.33 58.0278 22.6344 58.1439C22.9388 58.2576 23.2117 58.4331 23.4531 58.6705C23.6972 58.9053 23.89 59.202 24.0317 59.5606C24.1735 59.9167 24.2443 60.3384 24.2443 60.8258V61.1591H19.5208V60.5644H23.5279C23.5279 60.1907 23.4492 59.8548 23.2917 59.5568C23.1369 59.2563 22.9204 59.0189 22.6423 58.8447C22.3667 58.6705 22.0479 58.5833 21.6857 58.5833C21.3026 58.5833 20.9654 58.6818 20.6741 58.8788C20.3829 59.0758 20.1545 59.3359 19.9892 59.6591C19.8265 59.9823 19.7439 60.3359 19.7412 60.7197V61.0758C19.7412 61.5379 19.8239 61.9419 19.9892 62.2879C20.1572 62.6313 20.3947 62.8977 20.7017 63.0871C21.0087 63.2765 21.3722 63.3712 21.792 63.3712C22.0781 63.3712 22.3287 63.3283 22.5438 63.2424C22.7617 63.1566 22.944 63.0417 23.091 62.8977C23.2406 62.7513 23.3534 62.5909 23.4295 62.4167L24.0947 62.625C24.0029 62.8699 23.852 63.096 23.6421 63.303C23.4348 63.5101 23.175 63.6768 22.8627 63.803C22.553 63.9268 22.1961 63.9886 21.792 63.9886Z" fill="#4F4F4F"/>
<path d="M25.7883 63.8674V58.0492H26.4693V58.9432H26.5322C26.653 58.6427 26.8537 58.4066 27.1345 58.2348C27.4179 58.0606 27.7577 57.9735 28.154 57.9735C28.5712 57.9735 28.9137 58.0682 29.1813 58.2576C29.4516 58.4444 29.6537 58.702 29.7875 59.0303H29.8387C29.9751 58.7071 30.1969 58.4508 30.5039 58.2614C30.8136 58.0694 31.1888 57.9735 31.6297 57.9735C32.1912 57.9735 32.6347 58.1439 32.9601 58.4848C33.2855 58.8232 33.4482 59.3182 33.4482 59.9697V63.8674H32.7476V59.9697C32.7476 59.5101 32.6255 59.1654 32.3815 58.9356C32.1375 58.7058 31.816 58.5909 31.4171 58.5909C30.9553 58.5909 30.5997 58.7273 30.3504 59C30.1011 59.2727 29.9765 59.6187 29.9765 60.0379V63.8674H29.2601V59.9091C29.2601 59.5152 29.1459 59.197 28.9176 58.9545C28.6893 58.7121 28.3678 58.5909 27.9532 58.5909C27.6751 58.5909 27.4245 58.6566 27.2014 58.7879C26.981 58.9192 26.8065 59.1023 26.6779 59.3371C26.5519 59.5694 26.4889 59.8371 26.4889 60.1402V63.8674H25.7883Z" fill="#4F4F4F"/>
<path d="M36.9918 64C36.6271 64 36.2938 63.9318 35.992 63.7955C35.6902 63.6566 35.4501 63.4571 35.2717 63.197C35.0932 62.9343 35.004 62.6162 35.004 62.2424C35.004 61.9545 35.0604 61.7121 35.1733 61.5152C35.2861 61.3182 35.4462 61.1566 35.6535 61.0303C35.8608 60.904 36.1062 60.8043 36.3896 60.7311C36.673 60.6578 36.9853 60.601 37.3264 60.5606C37.6649 60.5202 37.951 60.4848 38.1845 60.4545C38.4207 60.4242 38.6004 60.3763 38.7238 60.3106C38.8471 60.2449 38.9088 60.1389 38.9088 59.9924V59.8561C38.9088 59.4596 38.7854 59.1477 38.5388 58.9205C38.2947 58.6907 37.9431 58.5758 37.4839 58.5758C37.0482 58.5758 36.6927 58.6679 36.4171 58.8523C36.1442 59.0366 35.9527 59.2538 35.8424 59.5038L35.1772 59.2727C35.3137 58.9545 35.5026 58.7008 35.744 58.5114C35.9855 58.3194 36.2557 58.1818 36.5549 58.0985C36.8541 58.0126 37.1572 57.9697 37.4642 57.9697C37.6951 57.9697 37.9352 57.9987 38.1845 58.0568C38.4364 58.1149 38.67 58.2159 38.8852 58.3598C39.1003 58.5013 39.2748 58.6995 39.4087 58.9545C39.5425 59.2071 39.6094 59.5278 39.6094 59.9167V63.8674H38.9088V62.947H38.8655C38.7815 63.1187 38.6569 63.2854 38.4915 63.447C38.3262 63.6086 38.1189 63.7412 37.8696 63.8447C37.6203 63.9482 37.3277 64 36.9918 64ZM37.0863 63.3826C37.4589 63.3826 37.7817 63.303 38.0546 63.1439C38.3275 62.9848 38.5375 62.774 38.6844 62.5114C38.834 62.2462 38.9088 61.9545 38.9088 61.6364V60.7955C38.8563 60.8434 38.7684 60.8864 38.6451 60.9242C38.5243 60.9621 38.3839 60.9962 38.2239 61.0265C38.0664 61.0543 37.909 61.0783 37.7515 61.0985C37.5941 61.1187 37.4524 61.1364 37.3264 61.1515C36.9853 61.1919 36.694 61.2551 36.4526 61.3409C36.2111 61.4268 36.0261 61.5455 35.8976 61.697C35.769 61.846 35.7047 62.0379 35.7047 62.2727C35.7047 62.6263 35.8359 62.9003 36.0983 63.0947C36.3607 63.2866 36.6901 63.3826 37.0863 63.3826Z" fill="#4F4F4F"/>
<path d="M46.7675 63.9886C46.2715 63.9886 45.8372 63.8624 45.4646 63.6098C45.092 63.3573 44.8007 63.0051 44.5907 62.553C44.3834 62.101 44.2798 61.5745 44.2798 60.9735C44.2798 60.375 44.3834 59.851 44.5907 59.4015C44.8007 58.9495 45.0933 58.5985 45.4685 58.3485C45.8438 58.096 46.2807 57.9697 46.7793 57.9697C47.1467 57.9697 47.4524 58.0328 47.6964 58.1591C47.9405 58.2828 48.136 58.4369 48.2829 58.6212C48.4299 58.8056 48.544 58.9848 48.6254 59.1591H48.6884V56.1098H49.393V63.8674H48.7081V62.7879H48.6254C48.544 62.9646 48.4286 63.1465 48.279 63.3333C48.1294 63.5177 47.9313 63.673 47.6846 63.7992C47.4406 63.9255 47.1349 63.9886 46.7675 63.9886ZM46.8501 63.3712C47.2411 63.3712 47.5744 63.2689 47.85 63.0644C48.1255 62.8573 48.3354 62.5732 48.4798 62.2121C48.6267 61.8485 48.7002 61.4318 48.7002 60.9621C48.7002 60.4975 48.628 60.0871 48.4837 59.7311C48.3394 59.3725 48.1294 59.0922 47.8539 58.8902C47.5784 58.6856 47.2438 58.5833 46.8501 58.5833C46.446 58.5833 46.1049 58.6894 45.8267 58.9015C45.5512 59.1111 45.3413 59.3952 45.1969 59.7538C45.0552 60.1124 44.9844 60.5152 44.9844 60.9621C44.9844 61.4141 45.0565 61.822 45.2009 62.1856C45.3452 62.5492 45.5551 62.8384 45.8307 63.053C46.1088 63.2652 46.4487 63.3712 46.8501 63.3712Z" fill="#4F4F4F"/>
<path d="M53.833 63.9886C53.2689 63.9886 52.7808 63.8624 52.3688 63.6098C51.9568 63.3548 51.6379 63.0025 51.4123 62.553C51.1892 62.101 51.0777 61.5808 51.0777 60.9924C51.0777 60.4066 51.1892 59.8864 51.4123 59.4318C51.6379 58.9747 51.9489 58.6174 52.3451 58.3598C52.744 58.0997 53.2046 57.9697 53.7268 57.9697C54.0548 57.9697 54.371 58.0278 54.6754 58.1439C54.9798 58.2576 55.2527 58.4331 55.4941 58.6705C55.7382 58.9053 55.9311 59.202 56.0728 59.5606C56.2145 59.9167 56.2853 60.3384 56.2853 60.8258V61.1591H51.5618V60.5644H55.5689C55.5689 60.1907 55.4902 59.8548 55.3328 59.5568C55.1779 59.2563 54.9614 59.0189 54.6833 58.8447C54.4077 58.6705 54.0889 58.5833 53.7268 58.5833C53.3436 58.5833 53.0064 58.6818 52.7152 58.8788C52.4239 59.0758 52.1956 59.3359 52.0302 59.6591C51.8675 59.9823 51.7849 60.3359 51.7823 60.7197V61.0758C51.7823 61.5379 51.8649 61.9419 52.0302 62.2879C52.1982 62.6313 52.4357 62.8977 52.7427 63.0871C53.0497 63.2765 53.4132 63.3712 53.833 63.3712C54.1191 63.3712 54.3697 63.3283 54.5849 63.2424C54.8027 63.1566 54.9851 63.0417 55.132 62.8977C55.2816 62.7513 55.3944 62.5909 55.4705 62.4167L56.1357 62.625C56.0439 62.8699 55.893 63.096 55.6831 63.303C55.4758 63.5101 55.216 63.6768 54.9037 63.803C54.594 63.9268 54.2372 63.9886 53.833 63.9886Z" fill="#4F4F4F"/>
<path d="M63.3086 63.9886C62.768 63.9886 62.297 63.8586 61.8955 63.5985C61.4966 63.3384 61.1869 62.9823 60.9665 62.5303C60.7461 62.0783 60.6359 61.5631 60.6359 60.9848C60.6359 60.4015 60.7474 59.8826 60.9704 59.428C61.1961 58.9735 61.5084 58.6174 61.9073 58.3598C62.3061 58.0997 62.7693 57.9697 63.2968 57.9697C63.7009 57.9697 64.0669 58.0455 64.395 58.197C64.723 58.346 64.9933 58.5568 65.2058 58.8295C65.421 59.0997 65.5562 59.4154 65.6113 59.7765H64.9027C64.8293 59.4482 64.6521 59.1679 64.3714 58.9356C64.0932 58.7008 63.7389 58.5833 63.3086 58.5833C62.9228 58.5833 62.5817 58.6843 62.2851 58.8864C61.9886 59.0859 61.7564 59.3649 61.5884 59.7235C61.4231 60.0795 61.3404 60.4924 61.3404 60.9621C61.3404 61.4343 61.4218 61.8523 61.5845 62.2159C61.7472 62.577 61.9755 62.8598 62.2694 63.0644C62.5659 63.2689 62.9123 63.3712 63.3086 63.3712C63.5762 63.3712 63.8203 63.3232 64.0407 63.2273C64.2638 63.1288 64.4501 62.9899 64.5997 62.8106C64.7519 62.6313 64.8542 62.4179 64.9067 62.1705H65.6152C65.5627 62.5215 65.4328 62.8346 65.2255 63.1098C65.0208 63.3826 64.7545 63.5972 64.4265 63.7538C64.1011 63.9104 63.7284 63.9886 63.3086 63.9886Z" fill="#4F4F4F"/>
<path d="M67.8175 60.2311V63.8674H67.1169V56.1098H67.8175V58.9621H67.8805C68.0222 58.6616 68.2413 58.4217 68.5379 58.2424C68.837 58.0631 69.2149 57.9735 69.6715 57.9735C70.0809 57.9735 70.4404 58.0543 70.75 58.2159C71.0597 58.3775 71.3011 58.6162 71.4743 58.9318C71.6475 59.2475 71.7341 59.6364 71.7341 60.0985V63.8674H71.0295V60.1402C71.0295 59.6604 70.8904 59.2828 70.6123 59.0076C70.3367 58.7298 69.9641 58.5909 69.4944 58.5909C69.1716 58.5909 68.8843 58.6566 68.6323 58.7879C68.3804 58.9192 68.181 59.1086 68.034 59.3561C67.8897 59.601 67.8175 59.8927 67.8175 60.2311Z" fill="#4F4F4F"/>
<path d="M75.2679 64C74.9031 64 74.5698 63.9318 74.2681 63.7955C73.9663 63.6566 73.7262 63.4571 73.5477 63.197C73.3693 62.9343 73.2801 62.6162 73.2801 62.2424C73.2801 61.9545 73.3365 61.7121 73.4493 61.5152C73.5621 61.3182 73.7222 61.1566 73.9295 61.0303C74.1368 60.904 74.3822 60.8043 74.6656 60.7311C74.949 60.6578 75.2613 60.601 75.6024 60.5606C75.941 60.5202 76.227 60.4848 76.4605 60.4545C76.6967 60.4242 76.8765 60.3763 76.9998 60.3106C77.1231 60.2449 77.1848 60.1389 77.1848 59.9924V59.8561C77.1848 59.4596 77.0615 59.1477 76.8148 58.9205C76.5708 58.6907 76.2191 58.5758 75.7599 58.5758C75.3243 58.5758 74.9687 58.6679 74.6932 58.8523C74.4202 59.0366 74.2287 59.2538 74.1185 59.5038L73.4532 59.2727C73.5897 58.9545 73.7786 58.7008 74.0201 58.5114C74.2615 58.3194 74.5318 58.1818 74.8309 58.0985C75.1301 58.0126 75.4332 57.9697 75.7402 57.9697C75.9711 57.9697 76.2112 57.9987 76.4605 58.0568C76.7125 58.1149 76.946 58.2159 77.1612 58.3598C77.3764 58.5013 77.5509 58.6995 77.6847 58.9545C77.8185 59.2071 77.8855 59.5278 77.8855 59.9167V63.8674H77.1848V62.947H77.1415C77.0575 63.1187 76.9329 63.2854 76.7676 63.447C76.6022 63.6086 76.3949 63.7412 76.1456 63.8447C75.8963 63.9482 75.6038 64 75.2679 64ZM75.3623 63.3826C75.735 63.3826 76.0577 63.303 76.3306 63.1439C76.6036 62.9848 76.8135 62.774 76.9604 62.5114C77.11 62.2462 77.1848 61.9545 77.1848 61.6364V60.7955C77.1323 60.8434 77.0444 60.8864 76.9211 60.9242C76.8004 60.9621 76.66 60.9962 76.4999 61.0265C76.3425 61.0543 76.185 61.0783 76.0275 61.0985C75.8701 61.1187 75.7284 61.1364 75.6024 61.1515C75.2613 61.1919 74.97 61.2551 74.7286 61.3409C74.4872 61.4268 74.3022 61.5455 74.1736 61.697C74.045 61.846 73.9807 62.0379 73.9807 62.2727C73.9807 62.6263 74.1119 62.9003 74.3743 63.0947C74.6367 63.2866 74.9661 63.3826 75.3623 63.3826Z" fill="#4F4F4F"/>
<path d="M79.7493 63.8674V58.0492H80.4302V58.9432H80.4932C80.6139 58.6427 80.8147 58.4066 81.0955 58.2348C81.3789 58.0606 81.7187 57.9735 82.115 57.9735C82.5322 57.9735 82.8746 58.0682 83.1423 58.2576C83.4126 58.4444 83.6147 58.702 83.7485 59.0303H83.7997C83.9361 58.7071 84.1579 58.4508 84.4649 58.2614C84.7745 58.0694 85.1498 57.9735 85.5907 57.9735C86.1522 57.9735 86.5957 58.1439 86.9211 58.4848C87.2465 58.8232 87.4092 59.3182 87.4092 59.9697V63.8674H86.7085V59.9697C86.7085 59.5101 86.5865 59.1654 86.3425 58.9356C86.0984 58.7058 85.777 58.5909 85.3781 58.5909C84.9162 58.5909 84.5607 58.7273 84.3114 59C84.0621 59.2727 83.9374 59.6187 83.9374 60.0379V63.8674H83.221V59.9091C83.221 59.5152 83.1069 59.197 82.8786 58.9545C82.6503 58.7121 82.3288 58.5909 81.9142 58.5909C81.636 58.5909 81.3854 58.6566 81.1624 58.7879C80.9419 58.9192 80.7674 59.1023 80.6389 59.3371C80.5129 59.5694 80.4499 59.8371 80.4499 60.1402V63.8674H79.7493Z" fill="#4F4F4F"/>
<path d="M90.9528 64C90.588 64 90.2548 63.9318 89.953 63.7955C89.6512 63.6566 89.4111 63.4571 89.2327 63.197C89.0542 62.9343 88.965 62.6162 88.965 62.2424C88.965 61.9545 89.0214 61.7121 89.1342 61.5152C89.2471 61.3182 89.4072 61.1566 89.6145 61.0303C89.8218 60.904 90.0671 60.8043 90.3506 60.7311C90.634 60.6578 90.9462 60.601 91.2874 60.5606C91.6259 60.5202 91.9119 60.4848 92.1455 60.4545C92.3817 60.4242 92.5614 60.3763 92.6847 60.3106C92.8081 60.2449 92.8698 60.1389 92.8698 59.9924V59.8561C92.8698 59.4596 92.7464 59.1477 92.4997 58.9205C92.2557 58.6907 91.9041 58.5758 91.4448 58.5758C91.0092 58.5758 90.6536 58.6679 90.3781 58.8523C90.1052 59.0366 89.9136 59.2538 89.8034 59.5038L89.1382 59.2727C89.2747 58.9545 89.4636 58.7008 89.705 58.5114C89.9464 58.3194 90.2167 58.1818 90.5159 58.0985C90.815 58.0126 91.1181 57.9697 91.4251 57.9697C91.6561 57.9697 91.8962 57.9987 92.1455 58.0568C92.3974 58.1149 92.631 58.2159 92.8461 58.3598C93.0613 58.5013 93.2358 58.6995 93.3697 58.9545C93.5035 59.2071 93.5704 59.5278 93.5704 59.9167V63.8674H92.8698V62.947H92.8265C92.7425 63.1187 92.6178 63.2854 92.4525 63.447C92.2872 63.6086 92.0799 63.7412 91.8306 63.8447C91.5813 63.9482 91.2887 64 90.9528 64ZM91.0473 63.3826C91.4199 63.3826 91.7427 63.303 92.0156 63.1439C92.2885 62.9848 92.4984 62.774 92.6454 62.5114C92.795 62.2462 92.8698 61.9545 92.8698 61.6364V60.7955C92.8173 60.8434 92.7294 60.8864 92.606 60.9242C92.4853 60.9621 92.3449 60.9962 92.1848 61.0265C92.0274 61.0543 91.8699 61.0783 91.7125 61.0985C91.555 61.1187 91.4133 61.1364 91.2874 61.1515C90.9462 61.1919 90.655 61.2551 90.4135 61.3409C90.1721 61.4268 89.9871 61.5455 89.8585 61.697C89.7299 61.846 89.6656 62.0379 89.6656 62.2727C89.6656 62.6263 89.7969 62.9003 90.0593 63.0947C90.3217 63.2866 90.651 63.3826 91.0473 63.3826Z" fill="#4F4F4F"/>
<path d="M97.611 63.9886C97.115 63.9886 96.6807 63.8624 96.3081 63.6098C95.9354 63.3573 95.6441 63.0051 95.4342 62.553C95.2269 62.101 95.1233 61.5745 95.1233 60.9735C95.1233 60.375 95.2269 59.851 95.4342 59.4015C95.6441 58.9495 95.9367 58.5985 96.312 58.3485C96.6873 58.096 97.1242 57.9697 97.6228 57.9697C97.9902 57.9697 98.2959 58.0328 98.5399 58.1591C98.784 58.2828 98.9795 58.4369 99.1264 58.6212C99.2734 58.8056 99.3875 58.9848 99.4689 59.1591H99.5318V56.1098H100.236V63.8674H99.5515V62.7879H99.4689C99.3875 62.9646 99.272 63.1465 99.1225 63.3333C98.9729 63.5177 98.7748 63.673 98.5281 63.7992C98.284 63.9255 97.9783 63.9886 97.611 63.9886ZM97.6936 63.3712C98.0846 63.3712 98.4179 63.2689 98.6934 63.0644C98.969 62.8573 99.1789 62.5732 99.3232 62.2121C99.4702 61.8485 99.5436 61.4318 99.5436 60.9621C99.5436 60.4975 99.4715 60.0871 99.3272 59.7311C99.1828 59.3725 98.9729 59.0922 98.6974 58.8902C98.4218 58.6856 98.0872 58.5833 97.6936 58.5833C97.2895 58.5833 96.9484 58.6894 96.6702 58.9015C96.3947 59.1111 96.1847 59.3952 96.0404 59.7538C95.8987 60.1124 95.8278 60.5152 95.8278 60.9621C95.8278 61.4141 95.9 61.822 96.0443 62.1856C96.1887 62.5492 96.3986 62.8384 96.6741 63.053C96.9523 63.2652 97.2921 63.3712 97.6936 63.3712Z" fill="#4F4F4F"/>
<path d="M103.921 64C103.556 64 103.223 63.9318 102.921 63.7955C102.619 63.6566 102.379 63.4571 102.201 63.197C102.022 62.9343 101.933 62.6162 101.933 62.2424C101.933 61.9545 101.989 61.7121 102.102 61.5152C102.215 61.3182 102.375 61.1566 102.582 61.0303C102.79 60.904 103.035 60.8043 103.319 60.7311C103.602 60.6578 103.914 60.601 104.255 60.5606C104.594 60.5202 104.88 60.4848 105.113 60.4545C105.35 60.4242 105.529 60.3763 105.653 60.3106C105.776 60.2449 105.838 60.1389 105.838 59.9924V59.8561C105.838 59.4596 105.714 59.1477 105.468 58.9205C105.224 58.6907 104.872 58.5758 104.413 58.5758C103.977 58.5758 103.622 58.6679 103.346 58.8523C103.073 59.0366 102.882 59.2538 102.771 59.5038L102.106 59.2727C102.243 58.9545 102.432 58.7008 102.673 58.5114C102.914 58.3194 103.185 58.1818 103.484 58.0985C103.783 58.0126 104.086 57.9697 104.393 57.9697C104.624 57.9697 104.864 57.9987 105.113 58.0568C105.365 58.1149 105.599 58.2159 105.814 58.3598C106.029 58.5013 106.204 58.6995 106.338 58.9545C106.471 59.2071 106.538 59.5278 106.538 59.9167V63.8674H105.838V62.947H105.794C105.71 63.1187 105.586 63.2854 105.42 63.447C105.255 63.6086 105.048 63.7412 104.799 63.8447C104.549 63.9482 104.257 64 103.921 64ZM104.015 63.3826C104.388 63.3826 104.711 63.303 104.984 63.1439C105.256 62.9848 105.466 62.774 105.613 62.5114C105.763 62.2462 105.838 61.9545 105.838 61.6364V60.7955C105.785 60.8434 105.697 60.8864 105.574 60.9242C105.453 60.9621 105.313 60.9962 105.153 61.0265C104.995 61.0543 104.838 61.0783 104.68 61.0985C104.523 61.1187 104.381 61.1364 104.255 61.1515C103.914 61.1919 103.623 61.2551 103.381 61.3409C103.14 61.4268 102.955 61.5455 102.826 61.697C102.698 61.846 102.634 62.0379 102.634 62.2727C102.634 62.6263 102.765 62.9003 103.027 63.0947C103.29 63.2866 103.619 63.3826 104.015 63.3826Z" fill="#4F4F4F"/>
<path d="M112.464 59.3258L111.823 59.5C111.76 59.3258 111.671 59.1679 111.555 59.0265C111.44 58.8851 111.289 58.7727 111.102 58.6894C110.919 58.6061 110.69 58.5644 110.418 58.5644C110.008 58.5644 109.672 58.6578 109.41 58.8447C109.147 59.0316 109.016 59.2727 109.016 59.5682C109.016 59.8182 109.105 60.0215 109.284 60.178C109.465 60.3321 109.743 60.4545 110.118 60.5455L111.032 60.7614C111.538 60.8801 111.917 61.0682 112.169 61.3258C112.424 61.5833 112.551 61.9066 112.551 62.2955C112.551 62.6237 112.456 62.9154 112.268 63.1705C112.079 63.4255 111.815 63.6263 111.476 63.7727C111.14 63.9167 110.751 63.9886 110.307 63.9886C109.717 63.9886 109.23 63.8611 108.847 63.6061C108.464 63.3485 108.218 62.9773 108.111 62.4924L108.784 62.3333C108.871 62.6793 109.04 62.9407 109.292 63.1174C109.546 63.2942 109.881 63.3826 110.295 63.3826C110.76 63.3826 111.131 63.2828 111.409 63.0833C111.688 62.8813 111.827 62.6288 111.827 62.3258C111.827 62.0909 111.745 61.8939 111.583 61.7348C111.42 61.5732 111.173 61.4545 110.843 61.3788L109.855 61.1515C109.33 61.0303 108.941 60.8384 108.69 60.5758C108.438 60.3131 108.312 59.9874 108.312 59.5985C108.312 59.2778 108.402 58.9962 108.583 58.7538C108.764 58.5088 109.014 58.3169 109.331 58.178C109.649 58.0391 110.011 57.9697 110.418 57.9697C110.971 57.9697 111.413 58.0909 111.744 58.3333C112.077 58.5732 112.317 58.904 112.464 59.3258Z" fill="#4F4F4F"/>
<path d="M122.721 56.1098H123.457V61.2462C123.457 61.774 123.329 62.2462 123.072 62.6629C122.814 63.077 122.456 63.404 121.997 63.6439C121.54 63.8813 121.009 64 120.403 64C119.799 64 119.268 63.8801 118.809 63.6402C118.349 63.4003 117.991 63.0732 117.734 62.6591C117.477 62.2449 117.348 61.774 117.348 61.2462V56.1098H118.084V61.197C118.084 61.6086 118.18 61.976 118.372 62.2992C118.563 62.6199 118.832 62.8725 119.179 63.0568C119.528 63.2412 119.936 63.3333 120.403 63.3333C120.87 63.3333 121.278 63.2412 121.627 63.0568C121.976 62.8725 122.245 62.6199 122.434 62.2992C122.625 61.976 122.721 61.6086 122.721 61.197V56.1098Z" fill="#4F4F4F"/>
<path d="M126.152 60.2311V63.8674H125.451V58.0492H126.132V58.9621H126.195C126.337 58.6641 126.557 58.4255 126.856 58.2462C127.158 58.0644 127.531 57.9735 127.974 57.9735C128.381 57.9735 128.738 58.0556 129.045 58.2197C129.354 58.3813 129.595 58.6199 129.765 58.9356C129.938 59.2513 130.025 59.6389 130.025 60.0985V63.8674H129.324V60.1402C129.324 59.6629 129.185 59.2854 128.907 59.0076C128.632 58.7298 128.261 58.5909 127.797 58.5909C127.479 58.5909 127.197 58.6566 126.951 58.7879C126.704 58.9192 126.509 59.1086 126.364 59.3561C126.223 59.601 126.152 59.8927 126.152 60.2311Z" fill="#4F4F4F"/>
<path d="M131.878 63.8674V58.0492H132.583V63.8674H131.878ZM132.236 57.0492C132.092 57.0492 131.968 57.0025 131.866 56.9091C131.764 56.8131 131.713 56.6982 131.713 56.5644C131.713 56.4306 131.764 56.3169 131.866 56.2235C131.968 56.1275 132.092 56.0795 132.236 56.0795C132.38 56.0795 132.504 56.1275 132.606 56.2235C132.708 56.3169 132.76 56.4306 132.76 56.5644C132.76 56.6982 132.708 56.8131 132.606 56.9091C132.504 57.0025 132.38 57.0492 132.236 57.0492Z" fill="#4F4F4F"/>
<path d="M136.124 64C135.759 64 135.426 63.9318 135.124 63.7955C134.823 63.6566 134.582 63.4571 134.404 63.197C134.226 62.9343 134.136 62.6162 134.136 62.2424C134.136 61.9545 134.193 61.7121 134.306 61.5152C134.418 61.3182 134.579 61.1566 134.786 61.0303C134.993 60.904 135.238 60.8043 135.522 60.7311C135.805 60.6578 136.118 60.601 136.459 60.5606C136.797 60.5202 137.083 60.4848 137.317 60.4545C137.553 60.4242 137.733 60.3763 137.856 60.3106C137.979 60.2449 138.041 60.1389 138.041 59.9924V59.8561C138.041 59.4596 137.918 59.1477 137.671 58.9205C137.427 58.6907 137.075 58.5758 136.616 58.5758C136.181 58.5758 135.825 58.6679 135.549 58.8523C135.277 59.0366 135.085 59.2538 134.975 59.5038L134.31 59.2727C134.446 58.9545 134.635 58.7008 134.876 58.5114C135.118 58.3194 135.388 58.1818 135.687 58.0985C135.986 58.0126 136.289 57.9697 136.596 57.9697C136.827 57.9697 137.068 57.9987 137.317 58.0568C137.569 58.1149 137.802 58.2159 138.017 58.3598C138.233 58.5013 138.407 58.6995 138.541 58.9545C138.675 59.2071 138.742 59.5278 138.742 59.9167V63.8674H138.041V62.947H137.998C137.914 63.1187 137.789 63.2854 137.624 63.447C137.459 63.6086 137.251 63.7412 137.002 63.8447C136.753 63.9482 136.46 64 136.124 64ZM136.219 63.3826C136.591 63.3826 136.914 63.303 137.187 63.1439C137.46 62.9848 137.67 62.774 137.817 62.5114C137.966 62.2462 138.041 61.9545 138.041 61.6364V60.7955C137.989 60.8434 137.901 60.8864 137.777 60.9242C137.657 60.9621 137.516 60.9962 137.356 61.0265C137.199 61.0543 137.041 61.0783 136.884 61.0985C136.726 61.1187 136.585 61.1364 136.459 61.1515C136.118 61.1919 135.826 61.2551 135.585 61.3409C135.343 61.4268 135.158 61.5455 135.03 61.697C134.901 61.846 134.837 62.0379 134.837 62.2727C134.837 62.6263 134.968 62.9003 135.231 63.0947C135.493 63.2866 135.822 63.3826 136.219 63.3826Z" fill="#4F4F4F"/>
<path d="M145.069 58.0492L142.861 63.8674H142.113L139.905 58.0492H140.665L142.46 62.9773H142.515L144.31 58.0492H145.069Z" fill="#4F4F4F"/>
<path d="M147.945 64C147.58 64 147.247 63.9318 146.945 63.7955C146.643 63.6566 146.403 63.4571 146.225 63.197C146.046 62.9343 145.957 62.6162 145.957 62.2424C145.957 61.9545 146.013 61.7121 146.126 61.5152C146.239 61.3182 146.399 61.1566 146.606 61.0303C146.814 60.904 147.059 60.8043 147.342 60.7311C147.626 60.6578 147.938 60.601 148.279 60.5606C148.618 60.5202 148.904 60.4848 149.137 60.4545C149.374 60.4242 149.553 60.3763 149.677 60.3106C149.8 60.2449 149.862 60.1389 149.862 59.9924V59.8561C149.862 59.4596 149.738 59.1477 149.492 58.9205C149.248 58.6907 148.896 58.5758 148.437 58.5758C148.001 58.5758 147.646 58.6679 147.37 58.8523C147.097 59.0366 146.906 59.2538 146.795 59.5038L146.13 59.2727C146.267 58.9545 146.455 58.7008 146.697 58.5114C146.938 58.3194 147.209 58.1818 147.508 58.0985C147.807 58.0126 148.11 57.9697 148.417 57.9697C148.648 57.9697 148.888 57.9987 149.137 58.0568C149.389 58.1149 149.623 58.2159 149.838 58.3598C150.053 58.5013 150.228 58.6995 150.362 58.9545C150.495 59.2071 150.562 59.5278 150.562 59.9167V63.8674H149.862V62.947H149.818C149.734 63.1187 149.61 63.2854 149.444 63.447C149.279 63.6086 149.072 63.7412 148.822 63.8447C148.573 63.9482 148.281 64 147.945 64ZM148.039 63.3826C148.412 63.3826 148.735 63.303 149.007 63.1439C149.28 62.9848 149.49 62.774 149.637 62.5114C149.787 62.2462 149.862 61.9545 149.862 61.6364V60.7955C149.809 60.8434 149.721 60.8864 149.598 60.9242C149.477 60.9621 149.337 60.9962 149.177 61.0265C149.019 61.0543 148.862 61.0783 148.704 61.0985C148.547 61.1187 148.405 61.1364 148.279 61.1515C147.938 61.1919 147.647 61.2551 147.405 61.3409C147.164 61.4268 146.979 61.5455 146.85 61.697C146.722 61.846 146.658 62.0379 146.658 62.2727C146.658 62.6263 146.789 62.9003 147.051 63.0947C147.314 63.2866 147.643 63.3826 148.039 63.3826Z" fill="#4F4F4F"/>
<path d="M153.127 60.2311V63.8674H152.426V58.0492H153.107V58.9621H153.17C153.312 58.6641 153.532 58.4255 153.831 58.2462C154.133 58.0644 154.506 57.9735 154.949 57.9735C155.356 57.9735 155.713 58.0556 156.02 58.2197C156.33 58.3813 156.57 58.6199 156.74 58.9356C156.913 59.2513 157 59.6389 157 60.0985V63.8674H156.299V60.1402C156.299 59.6629 156.16 59.2854 155.882 59.0076C155.607 58.7298 155.237 58.5909 154.772 58.5909C154.455 58.5909 154.172 58.6566 153.926 58.7879C153.679 58.9192 153.484 59.1086 153.339 59.3561C153.198 59.601 153.127 59.8927 153.127 60.2311Z" fill="#4F4F4F"/>
</svg>
