<svg width="19" height="18" viewBox="0 0 19 18" fill="none" xmlns="http://www.w3.org/2000/svg">
<g clip-path="url(#clip0_117_8496)">
<g clip-path="url(#clip1_117_8496)">
<path d="M13.4497 11.3208H12.6367L12.3485 11.0429C13.3571 9.86964 13.9643 8.34648 13.9643 6.68954C13.9643 2.99485 10.9694 0 7.27474 0C3.58006 0 0.585205 2.99485 0.585205 6.68954C0.585205 10.3842 3.58006 13.3791 7.27474 13.3791C8.93169 13.3791 10.4548 12.7719 11.6281 11.7633L11.906 12.0515V12.8645L17.0518 18L18.5852 16.4666L13.4497 11.3208ZM7.27474 11.3208C4.71213 11.3208 2.64352 9.25214 2.64352 6.68954C2.64352 4.12693 4.71213 2.05832 7.27474 2.05832C9.83735 2.05832 11.906 4.12693 11.906 6.68954C11.906 9.25214 9.83735 11.3208 7.27474 11.3208Z" fill="#AEAEAE"/>
</g>
</g>
<defs>
<clipPath id="clip0_117_8496">
<rect width="18" height="18" fill="white" transform="translate(0.585205)"/>
</clipPath>
<clipPath id="clip1_117_8496">
<rect width="18" height="18" fill="white" transform="translate(0.585205)"/>
</clipPath>
</defs>
</svg>
